v -1 -1 1
v 1 -1 1
v 1 1 1
v -1 1 1
v -1 -1 -1
v 1 -1 -1
v 1 1 -1
v -1 1 -1
vt 0.5 0.333
vt 0.75 0.333
vt 0.75 0.666
vt 0.5 0.666
vt 1 0.333
vt 1 0.666
vt 0 0.333
vt 0 0.666
vt 0.25 0.333
vt 0.25 0.666
vt 0.5 1
vt 0.75 1
vt 0.5 0
vt 0.75 0
vn 0 0 1
vn 1 0 0
vn 0 0 -1
vn -1 0 0
vn 0 1 0
vn 0 -1 0
f 1/1/1 3/3/1 4/4/1
f 3/3/1 1/1/1 2/2/1
f 6/9/3 8/8/3 7/10/3
f 8/8/3 6/9/3 5/7/3
f 2/2/2 7/6/2 3/3/2
f 7/6/2 2/2/2 6/5/2
f 5/1/4 4/10/4 8/4/4
f 4/10/4 5/1/4 1/9/4
f 4/4/5 7/12/5 8/11/5
f 7/12/5 4/4/5 3/3/5
f 1/1/6 5/13/6 2/2/6
f 2/2/6 5/13/6 6/14/6
